<mxfile host="app.diagrams.net" agent="Mozilla/5.0 (Macintosh; Intel Mac OS X 10_15_7) AppleWebKit/537.36 (KHTML, like Gecko) Chrome/140.0.0.0 Safari/537.36" version="28.2.5">
  <diagram name="第 1 页" id="lGoSNSctOfTtcCzO5j_0">
    <mxGraphModel dx="925" dy="595" grid="1" gridSize="10" guides="1" tooltips="1" connect="1" arrows="1" fold="1" page="1" pageScale="1" pageWidth="827" pageHeight="1169" math="0" shadow="0">
      <root>
        <mxCell id="0" />
        <mxCell id="1" parent="0" />
        <mxCell id="SE6ITUf86javaqBnw-S6-1" style="shape=rect;rounded=1;arcSize=15;absoluteArcSize=1;shadow=0;strokeWidth=2;fillColor=none;pointerEvents=0;strokeColor=#1e1e1e;opacity=100.0;dashed=1;fixDash=1;dashPattern=;gliffyId=0;sketch=1;curveFitting=1;jiggle=2;" vertex="1" parent="1">
          <mxGeometry x="140" y="270" width="159" height="422.66" as="geometry" />
        </mxCell>
        <mxCell id="SE6ITUf86javaqBnw-S6-2" value="&lt;div style=&#39;width: 100.0px;height:auto;word-break: break-word;line-height:1em;&#39;&gt;&lt;div align=&quot;center&quot;&gt;&lt;span style=&quot;font-family: Arial; font-size: 20px; line-height: 0;&quot;&gt;&lt;span style=&quot; line-height: 0;&quot;&gt;&lt;span style=&quot;color: #1e1e1e; font-size: 20px; line-height: 16.5px;&quot;&gt;folder&lt;/span&gt;&lt;br&gt;&lt;/span&gt;&lt;/span&gt;&lt;/div&gt;&lt;/div&gt;" style="shape=rect;rounded=1;arcSize=15;absoluteArcSize=1;shadow=0;strokeWidth=2;fillColor=none;pointerEvents=0;strokeColor=#1e1e1e;opacity=100.0;dashed=1;fixDash=1;dashPattern=;html=1;nl2Br=0;verticalAlign=middle;align=center;spacingLeft=2.0;spacingRight=0;whiteSpace=wrap;gliffyId=1;sketch=1;curveFitting=1;jiggle=2;" vertex="1" parent="1">
          <mxGeometry x="159" y="354.6637878417969" width="104" height="46" as="geometry" />
        </mxCell>
        <mxCell id="SE6ITUf86javaqBnw-S6-3" value="&lt;div style=&#39;width: 54.0px;height:auto;word-break: break-word;line-height:1em;&#39;&gt;&lt;div align=&quot;center&quot;&gt;&lt;span style=&quot;font-family: Arial; font-size: 20px; line-height: 0;&quot;&gt;&lt;span style=&quot; line-height: 0;&quot;&gt;&lt;span style=&quot;color: #1e1e1e; font-size: 20px; line-height: 16.5px;&quot;&gt;file&lt;/span&gt;&lt;br&gt;&lt;/span&gt;&lt;/span&gt;&lt;/div&gt;&lt;/div&gt;" style="shape=rect;rounded=1;arcSize=15;absoluteArcSize=1;shadow=0;strokeWidth=2;fillColor=none;pointerEvents=0;strokeColor=#1e1e1e;opacity=100.0;dashed=1;fixDash=1;dashPattern=;html=1;nl2Br=0;verticalAlign=middle;align=center;spacingLeft=2.0;spacingRight=0;whiteSpace=wrap;gliffyId=3;sketch=1;curveFitting=1;jiggle=2;" vertex="1" parent="1">
          <mxGeometry x="203" y="431.6637878417969" width="58" height="39" as="geometry" />
        </mxCell>
        <mxCell id="SE6ITUf86javaqBnw-S6-4" value="&lt;div style=&#39;width: 54.0px;height:auto;word-break: break-word;line-height:1em;&#39;&gt;&lt;div align=&quot;center&quot;&gt;&lt;span style=&quot;font-family: Arial; font-size: 20px; line-height: 0;&quot;&gt;&lt;span style=&quot; line-height: 0;&quot;&gt;&lt;span style=&quot;color: #1e1e1e; font-size: 20px; line-height: 16.5px;&quot;&gt;file&lt;/span&gt;&lt;br&gt;&lt;/span&gt;&lt;/span&gt;&lt;/div&gt;&lt;/div&gt;" style="shape=rect;rounded=1;arcSize=15;absoluteArcSize=1;shadow=0;strokeWidth=2;fillColor=none;pointerEvents=0;strokeColor=#1e1e1e;opacity=100.0;dashed=1;fixDash=1;dashPattern=;html=1;nl2Br=0;verticalAlign=middle;align=center;spacingLeft=2.0;spacingRight=0;whiteSpace=wrap;gliffyId=5;sketch=1;curveFitting=1;jiggle=2;" vertex="1" parent="1">
          <mxGeometry x="203" y="497.8304443359375" width="58" height="39" as="geometry" />
        </mxCell>
        <mxCell id="SE6ITUf86javaqBnw-S6-5" value="&lt;div style=&#39;width: 54.0px;height:auto;word-break: break-word;line-height:1em;&#39;&gt;&lt;div align=&quot;center&quot;&gt;&lt;span style=&quot;font-family: Arial; font-size: 20px; line-height: 0;&quot;&gt;&lt;span style=&quot; line-height: 0;&quot;&gt;&lt;span style=&quot;color: #1e1e1e; font-size: 20px; line-height: 16.5px;&quot;&gt;file&lt;/span&gt;&lt;br&gt;&lt;/span&gt;&lt;/span&gt;&lt;/div&gt;&lt;/div&gt;" style="shape=rect;rounded=1;arcSize=15;absoluteArcSize=1;shadow=0;strokeWidth=2;fillColor=none;pointerEvents=0;strokeColor=#1e1e1e;opacity=100.0;dashed=1;fixDash=1;dashPattern=;html=1;nl2Br=0;verticalAlign=middle;align=center;spacingLeft=2.0;spacingRight=0;whiteSpace=wrap;gliffyId=7;sketch=1;curveFitting=1;jiggle=2;" vertex="1" parent="1">
          <mxGeometry x="203" y="563.9971313476562" width="58" height="39" as="geometry" />
        </mxCell>
        <mxCell id="SE6ITUf86javaqBnw-S6-6" value="&lt;div style=&#39;width: 54.0px;height:auto;word-break: break-word;line-height:1em;&#39;&gt;&lt;div align=&quot;center&quot;&gt;&lt;span style=&quot;font-family: Arial; font-size: 20px; line-height: 0;&quot;&gt;&lt;span style=&quot; line-height: 0;&quot;&gt;&lt;span style=&quot;color: #1e1e1e; font-size: 20px; line-height: 16.5px;&quot;&gt;file&lt;/span&gt;&lt;br&gt;&lt;/span&gt;&lt;/span&gt;&lt;/div&gt;&lt;/div&gt;" style="shape=rect;rounded=1;arcSize=15;absoluteArcSize=1;shadow=0;strokeWidth=2;fillColor=none;pointerEvents=0;strokeColor=#1e1e1e;opacity=100.0;dashed=1;fixDash=1;dashPattern=;html=1;nl2Br=0;verticalAlign=middle;align=center;spacingLeft=2.0;spacingRight=0;whiteSpace=wrap;gliffyId=9;sketch=1;curveFitting=1;jiggle=2;" vertex="1" parent="1">
          <mxGeometry x="203" y="630.1637878417969" width="58" height="39" as="geometry" />
        </mxCell>
        <mxCell id="SE6ITUf86javaqBnw-S6-7" value="&lt;div style=&#39;width: 166.95833px;height:auto;word-break: break-word;line-height:1em;&#39;&gt;&lt;div align=&quot;center&quot;&gt;&lt;span style=&quot;font-family: Arial; font-size: 28px; line-height: 0;&quot;&gt;&lt;span style=&quot; line-height: 0;&quot;&gt;&lt;span style=&quot;color: #1e1e1e; font-size: 28px; line-height: 16.5px;&quot;&gt;Workspace&lt;/span&gt;&lt;br&gt;&lt;/span&gt;&lt;/span&gt;&lt;/div&gt;&lt;/div&gt;" style="text;html=1;nl2Br=0;html=1;nl2Br=0;verticalAlign=top;align=center;spacingLeft=0.0;spacingRight=0;spacingTop=-7.0;spacingBottom=0;whiteSpace=wrap;gliffyId=11;sketch=1;curveFitting=1;jiggle=2;" vertex="1" parent="1">
          <mxGeometry x="144.5" y="285.6637878417969" width="150" height="35" as="geometry" />
        </mxCell>
        <mxCell id="SE6ITUf86javaqBnw-S6-8" style="shape=rect;rounded=1;arcSize=15;absoluteArcSize=1;shadow=0;strokeWidth=2;fillColor=none;pointerEvents=0;strokeColor=#1e1e1e;opacity=100.0;dashed=1;fixDash=1;dashPattern=;gliffyId=12;sketch=1;curveFitting=1;jiggle=2;" vertex="1" parent="1">
          <mxGeometry x="442" y="318.6637878417969" width="114" height="294.28570556640625" as="geometry" />
        </mxCell>
        <mxCell id="SE6ITUf86javaqBnw-S6-9" value="&lt;div style=&#39;width: 96.667145px;height:auto;word-break: break-word;line-height:1em;&#39;&gt;&lt;div align=&quot;center&quot;&gt;&lt;span style=&quot;font-family: Arial; font-size: 28px; line-height: 0;&quot;&gt;&lt;span style=&quot; line-height: 0;&quot;&gt;&lt;span style=&quot;color: #1e1e1e; font-size: 28px; line-height: 16.5px;&quot;&gt;Stash&lt;/span&gt;&lt;br&gt;&lt;/span&gt;&lt;/span&gt;&lt;/div&gt;&lt;/div&gt;" style="text;html=1;nl2Br=0;html=1;nl2Br=0;verticalAlign=top;align=center;spacingLeft=0.0;spacingRight=0;spacingTop=-7.0;spacingBottom=0;whiteSpace=wrap;gliffyId=13;sketch=1;curveFitting=1;jiggle=2;" vertex="1" parent="1">
          <mxGeometry x="449.88" y="344.93" width="94.39" height="25.34" as="geometry" />
        </mxCell>
        <mxCell id="SE6ITUf86javaqBnw-S6-10" value="&lt;div style=&#39;width: 65.240265px;height:auto;word-break: break-word;line-height:1em;&#39;&gt;&lt;div align=&quot;center&quot;&gt;&lt;span style=&quot;font-family: Arial; font-size: 11px; line-height: 0;&quot;&gt;&lt;span style=&quot; line-height: 0;&quot;&gt;&lt;span style=&quot;color: #1e1e1e; font-size: 11px; line-height: 16.5px;&quot;&gt;folder&lt;/span&gt;&lt;br&gt;&lt;/span&gt;&lt;/span&gt;&lt;/div&gt;&lt;/div&gt;" style="shape=rect;rounded=1;arcSize=15;absoluteArcSize=1;shadow=0;strokeWidth=2;fillColor=none;pointerEvents=0;strokeColor=#1e1e1e;opacity=100.0;dashed=1;fixDash=1;dashPattern=;html=1;nl2Br=0;verticalAlign=middle;align=center;spacingLeft=2.0;spacingRight=0;whiteSpace=wrap;gliffyId=14;sketch=1;curveFitting=1;jiggle=2;" vertex="1" parent="1">
          <mxGeometry x="468.7597351074219" y="387.49713134765625" width="69.24026489257812" height="30.625503540039062" as="geometry" />
        </mxCell>
        <mxCell id="SE6ITUf86javaqBnw-S6-11" value="&lt;div style=&#39;width: 34.614765px;height:auto;word-break: break-word;line-height:1em;&#39;&gt;&lt;div align=&quot;center&quot;&gt;&lt;span style=&quot;font-family: Arial; font-size: 11px; line-height: 0;&quot;&gt;&lt;span style=&quot; line-height: 0;&quot;&gt;&lt;span style=&quot;color: #1e1e1e; font-size: 11px; line-height: 16.5px;&quot;&gt;file&lt;/span&gt;&lt;br&gt;&lt;/span&gt;&lt;/span&gt;&lt;/div&gt;&lt;/div&gt;" style="shape=rect;rounded=1;arcSize=15;absoluteArcSize=1;shadow=0;strokeWidth=2;fillColor=none;pointerEvents=0;strokeColor=#1e1e1e;opacity=100.0;dashed=1;fixDash=1;dashPattern=;html=1;nl2Br=0;verticalAlign=middle;align=center;spacingLeft=2.0;spacingRight=0;whiteSpace=wrap;gliffyId=16;sketch=1;curveFitting=1;jiggle=2;" vertex="1" parent="1">
          <mxGeometry x="494.692626953125" y="438.7615661621094" width="38.61476516723633" height="25.96510124206543" as="geometry" />
        </mxCell>
        <mxCell id="SE6ITUf86javaqBnw-S6-12" value="&lt;div style=&#39;width: 34.614765px;height:auto;word-break: break-word;line-height:1em;&#39;&gt;&lt;div align=&quot;center&quot;&gt;&lt;span style=&quot;font-family: Arial; font-size: 11px; line-height: 0;&quot;&gt;&lt;span style=&quot; line-height: 0;&quot;&gt;&lt;span style=&quot;color: #1e1e1e; font-size: 11px; line-height: 16.5px;&quot;&gt;file&lt;/span&gt;&lt;br&gt;&lt;/span&gt;&lt;/span&gt;&lt;/div&gt;&lt;/div&gt;" style="shape=rect;rounded=1;arcSize=15;absoluteArcSize=1;shadow=0;strokeWidth=2;fillColor=none;pointerEvents=0;strokeColor=#1e1e1e;opacity=100.0;dashed=1;fixDash=1;dashPattern=;html=1;nl2Br=0;verticalAlign=middle;align=center;spacingLeft=2.0;spacingRight=0;whiteSpace=wrap;gliffyId=18;sketch=1;curveFitting=1;jiggle=2;" vertex="1" parent="1">
          <mxGeometry x="494.692626953125" y="482.8134460449219" width="38.61476516723633" height="25.96510124206543" as="geometry" />
        </mxCell>
        <mxCell id="SE6ITUf86javaqBnw-S6-13" value="&lt;div style=&#39;width: 34.614765px;height:auto;word-break: break-word;line-height:1em;&#39;&gt;&lt;div align=&quot;center&quot;&gt;&lt;span style=&quot;font-family: Arial; font-size: 11px; line-height: 0;&quot;&gt;&lt;span style=&quot; line-height: 0;&quot;&gt;&lt;span style=&quot;color: #1e1e1e; font-size: 11px; line-height: 16.5px;&quot;&gt;file&lt;/span&gt;&lt;br&gt;&lt;/span&gt;&lt;/span&gt;&lt;/div&gt;&lt;/div&gt;" style="shape=rect;rounded=1;arcSize=15;absoluteArcSize=1;shadow=0;strokeWidth=2;fillColor=none;pointerEvents=0;strokeColor=#1e1e1e;opacity=100.0;dashed=1;fixDash=1;dashPattern=;html=1;nl2Br=0;verticalAlign=middle;align=center;spacingLeft=2.0;spacingRight=0;whiteSpace=wrap;gliffyId=20;sketch=1;curveFitting=1;jiggle=2;" vertex="1" parent="1">
          <mxGeometry x="494.692626953125" y="526.8653564453125" width="38.61476516723633" height="25.96510124206543" as="geometry" />
        </mxCell>
        <mxCell id="SE6ITUf86javaqBnw-S6-14" value="&lt;div style=&#39;width: 43.31997px;height:auto;word-break: break-word;line-height:1em;&#39;&gt;&lt;div align=&quot;center&quot;&gt;&lt;span style=&quot;font-family: Arial; font-size: 20px; line-height: 0;&quot;&gt;&lt;span style=&quot; line-height: 0;&quot;&gt;&lt;span style=&quot;color: #1e1e1e; font-size: 20px; line-height: 16.5px;&quot;&gt;add&lt;/span&gt;&lt;br&gt;&lt;/span&gt;&lt;/span&gt;&lt;/div&gt;&lt;/div&gt;" style="text;html=1;nl2Br=0;html=1;nl2Br=0;verticalAlign=top;align=center;spacingLeft=0.0;spacingRight=0;spacingTop=-7.0;spacingBottom=0;whiteSpace=wrap;gliffyId=22;sketch=1;curveFitting=1;jiggle=2;" vertex="1" parent="1">
          <mxGeometry x="339.5604705810547" y="358.4716339111328" width="43.319969177246094" height="25" as="geometry" />
        </mxCell>
        <mxCell id="SE6ITUf86javaqBnw-S6-15" style="shape=rect;rounded=1;arcSize=15;absoluteArcSize=1;shadow=0;strokeWidth=2;fillColor=none;pointerEvents=0;strokeColor=#1e1e1e;opacity=100.0;dashed=1;fixDash=1;dashPattern=;gliffyId=23;sketch=1;curveFitting=1;jiggle=2;" vertex="1" parent="1">
          <mxGeometry x="687" y="313.6637878417969" width="182" height="290.71429443359375" as="geometry" />
        </mxCell>
        <mxCell id="SE6ITUf86javaqBnw-S6-16" value="&lt;div style=&#39;width: 34.614765px;height:auto;word-break: break-word;line-height:1em;&#39;&gt;&lt;div align=&quot;center&quot;&gt;&lt;span style=&quot;font-family: Arial; font-size: 11px; line-height: 0;&quot;&gt;&lt;span style=&quot; line-height: 0;&quot;&gt;&lt;span style=&quot;color: #1e1e1e; font-size: 11px; line-height: 16.5px;&quot;&gt;file&lt;/span&gt;&lt;br&gt;&lt;/span&gt;&lt;/span&gt;&lt;/div&gt;&lt;/div&gt;" style="shape=rect;rounded=1;arcSize=15;absoluteArcSize=1;shadow=0;strokeWidth=2;fillColor=none;pointerEvents=0;strokeColor=#1e1e1e;opacity=100.0;dashed=1;fixDash=1;dashPattern=;html=1;nl2Br=0;verticalAlign=middle;align=center;spacingLeft=2.0;spacingRight=0;whiteSpace=wrap;gliffyId=24;sketch=1;curveFitting=1;jiggle=2;" vertex="1" parent="1">
          <mxGeometry x="494.692626953125" y="573.6812438964844" width="38.61476516723633" height="25.96510124206543" as="geometry" />
        </mxCell>
        <mxCell id="SE6ITUf86javaqBnw-S6-17" value="&lt;div style=&#39;width: 74.54392px;height:auto;word-break: break-word;line-height:1em;&#39;&gt;&lt;div align=&quot;center&quot;&gt;&lt;span style=&quot;font-family: Arial; font-size: 20px; line-height: 0;&quot;&gt;&lt;span style=&quot; line-height: 0;&quot;&gt;&lt;span style=&quot;color: #1e1e1e; font-size: 20px; line-height: 16.5px;&quot;&gt;commit&lt;/span&gt;&lt;br&gt;&lt;/span&gt;&lt;/span&gt;&lt;/div&gt;&lt;/div&gt;" style="text;html=1;nl2Br=0;html=1;nl2Br=0;verticalAlign=top;align=center;spacingLeft=0.0;spacingRight=0;spacingTop=-7.0;spacingBottom=0;whiteSpace=wrap;gliffyId=26;sketch=1;curveFitting=1;jiggle=2;" vertex="1" parent="1">
          <mxGeometry x="589.3712768554688" y="352.21315002441406" width="74.5439224243164" height="25" as="geometry" />
        </mxCell>
        <mxCell id="SE6ITUf86javaqBnw-S6-18" value="&lt;div style=&#39;width: 139.03189px;height:auto;word-break: break-word;line-height:1em;&#39;&gt;&lt;div align=&quot;center&quot;&gt;&lt;span style=&quot;font-family: Arial; font-size: 20px; line-height: 0;&quot;&gt;&lt;span style=&quot; line-height: 0;&quot;&gt;&lt;span style=&quot;color: #1e1e1e; font-size: 20px; line-height: 16.5px;&quot;&gt;reset HEAD&lt;/span&gt;&lt;br&gt;&lt;/span&gt;&lt;/span&gt;&lt;/div&gt;&lt;/div&gt;" style="text;html=1;nl2Br=0;html=1;nl2Br=0;verticalAlign=top;align=center;spacingLeft=0.0;spacingRight=0;spacingTop=-7.0;spacingBottom=0;whiteSpace=wrap;gliffyId=27;sketch=1;curveFitting=1;jiggle=2;" vertex="1" parent="1">
          <mxGeometry x="558.97" y="517.58" width="122.03" height="25" as="geometry" />
        </mxCell>
        <mxCell id="SE6ITUf86javaqBnw-S6-19" value="&lt;div style=&#39;width: 51.091167px;height:auto;word-break: break-word;line-height:1em;&#39;&gt;&lt;div align=&quot;center&quot;&gt;&lt;span style=&quot;font-family: Arial; font-size: 16px; line-height: 0;&quot;&gt;&lt;span style=&quot; line-height: 0;&quot;&gt;&lt;span style=&quot;color: #1e1e1e; font-size: 16px; line-height: 16.5px;&quot;&gt;HEAD&lt;/span&gt;&lt;br&gt;&lt;/span&gt;&lt;/span&gt;&lt;/div&gt;&lt;/div&gt;" style="text;html=1;nl2Br=0;html=1;nl2Br=0;verticalAlign=top;align=center;spacingLeft=0.0;spacingRight=0;spacingTop=-7.0;spacingBottom=0;whiteSpace=wrap;gliffyId=28;sketch=1;curveFitting=1;jiggle=2;" vertex="1" parent="1">
          <mxGeometry x="750.4520361328125" y="285.6637878417969" width="51.09116744995117" height="20" as="geometry" />
        </mxCell>
        <mxCell id="SE6ITUf86javaqBnw-S6-20" value="&lt;div style=&#39;width: 100.0px;height:auto;word-break: break-word;line-height:1em;&#39;&gt;&lt;div align=&quot;center&quot;&gt;&lt;span style=&quot;font-family: Arial; font-size: 20px; line-height: 0;&quot;&gt;&lt;span style=&quot; line-height: 0;&quot;&gt;&lt;span style=&quot;color: #1e1e1e; font-size: 20px; line-height: 16.5px;&quot;&gt;folder&lt;/span&gt;&lt;br&gt;&lt;/span&gt;&lt;/span&gt;&lt;/div&gt;&lt;/div&gt;" style="shape=rect;rounded=1;arcSize=15;absoluteArcSize=1;shadow=0;strokeWidth=2;fillColor=none;pointerEvents=0;strokeColor=#1e1e1e;opacity=100.0;dashed=1;fixDash=1;dashPattern=;html=1;nl2Br=0;verticalAlign=middle;align=center;spacingLeft=2.0;spacingRight=0;whiteSpace=wrap;gliffyId=29;sketch=1;curveFitting=1;jiggle=2;" vertex="1" parent="1">
          <mxGeometry x="724" y="340.4137878417969" width="104" height="46" as="geometry" />
        </mxCell>
        <mxCell id="SE6ITUf86javaqBnw-S6-21" value="&lt;div style=&#39;width: 54.0px;height:auto;word-break: break-word;line-height:1em;&#39;&gt;&lt;div align=&quot;center&quot;&gt;&lt;span style=&quot;font-family: Arial; font-size: 20px; line-height: 0;&quot;&gt;&lt;span style=&quot; line-height: 0;&quot;&gt;&lt;span style=&quot;color: #1e1e1e; font-size: 20px; line-height: 16.5px;&quot;&gt;file&lt;/span&gt;&lt;br&gt;&lt;/span&gt;&lt;/span&gt;&lt;/div&gt;&lt;/div&gt;" style="shape=rect;rounded=1;arcSize=15;absoluteArcSize=1;shadow=0;strokeWidth=2;fillColor=none;pointerEvents=0;strokeColor=#1e1e1e;opacity=100.0;dashed=1;fixDash=1;dashPattern=;html=1;nl2Br=0;verticalAlign=middle;align=center;spacingLeft=2.0;spacingRight=0;whiteSpace=wrap;gliffyId=31;sketch=1;curveFitting=1;jiggle=2;" vertex="1" parent="1">
          <mxGeometry x="768" y="412.4137878417969" width="58" height="39" as="geometry" />
        </mxCell>
        <mxCell id="SE6ITUf86javaqBnw-S6-22" value="&lt;div style=&#39;width: 54.0px;height:auto;word-break: break-word;line-height:1em;&#39;&gt;&lt;div align=&quot;center&quot;&gt;&lt;span style=&quot;font-family: Arial; font-size: 20px; line-height: 0;&quot;&gt;&lt;span style=&quot; line-height: 0;&quot;&gt;&lt;span style=&quot;color: #1e1e1e; font-size: 20px; line-height: 16.5px;&quot;&gt;file&lt;/span&gt;&lt;br&gt;&lt;/span&gt;&lt;/span&gt;&lt;/div&gt;&lt;/div&gt;" style="shape=rect;rounded=1;arcSize=15;absoluteArcSize=1;shadow=0;strokeWidth=2;fillColor=none;pointerEvents=0;strokeColor=#1e1e1e;opacity=100.0;dashed=1;fixDash=1;dashPattern=;html=1;nl2Br=0;verticalAlign=middle;align=center;spacingLeft=2.0;spacingRight=0;whiteSpace=wrap;gliffyId=33;sketch=1;curveFitting=1;jiggle=2;" vertex="1" parent="1">
          <mxGeometry x="768" y="478.5804443359375" width="58" height="39" as="geometry" />
        </mxCell>
        <mxCell id="SE6ITUf86javaqBnw-S6-23" value="&lt;div style=&#39;width: 54.0px;height:auto;word-break: break-word;line-height:1em;&#39;&gt;&lt;div align=&quot;center&quot;&gt;&lt;span style=&quot;font-family: Arial; font-size: 20px; line-height: 0;&quot;&gt;&lt;span style=&quot; line-height: 0;&quot;&gt;&lt;span style=&quot;color: #1e1e1e; font-size: 20px; line-height: 16.5px;&quot;&gt;file&lt;/span&gt;&lt;br&gt;&lt;/span&gt;&lt;/span&gt;&lt;/div&gt;&lt;/div&gt;" style="shape=rect;rounded=1;arcSize=15;absoluteArcSize=1;shadow=0;strokeWidth=2;fillColor=none;pointerEvents=0;strokeColor=#1e1e1e;opacity=100.0;dashed=1;fixDash=1;dashPattern=;html=1;nl2Br=0;verticalAlign=middle;align=center;spacingLeft=2.0;spacingRight=0;whiteSpace=wrap;gliffyId=35;sketch=1;curveFitting=1;jiggle=2;" vertex="1" parent="1">
          <mxGeometry x="768" y="544.7471313476562" width="58" height="39" as="geometry" />
        </mxCell>
        <mxCell id="SE6ITUf86javaqBnw-S6-24" value="&lt;div style=&#39;width: 169.7471px;height:auto;word-break: break-word;line-height:1em;&#39;&gt;&lt;div align=&quot;center&quot;&gt;&lt;span style=&quot;font-family: Arial; font-size: 28px; line-height: 0;&quot;&gt;&lt;span style=&quot; line-height: 0;&quot;&gt;&lt;span style=&quot;color: #1e1e1e; font-size: 28px; line-height: 16.5px;&quot;&gt;Repository&lt;/span&gt;&lt;br&gt;&lt;/span&gt;&lt;/span&gt;&lt;/div&gt;&lt;/div&gt;" style="text;html=1;nl2Br=0;html=1;nl2Br=0;verticalAlign=top;align=center;spacingLeft=0.0;spacingRight=0;spacingTop=-7.0;spacingBottom=0;whiteSpace=wrap;gliffyId=37;sketch=1;curveFitting=1;jiggle=2;" vertex="1" parent="1">
          <mxGeometry x="544.2720336914062" y="285.6637878417969" width="169.74710083007812" height="35" as="geometry" />
        </mxCell>
        <mxCell id="SE6ITUf86javaqBnw-S6-25" style="shape=rect;rounded=1;arcSize=15;absoluteArcSize=1;shadow=0;strokeWidth=2;fillColor=none;pointerEvents=0;strokeColor=#1e1e1e;opacity=100.0;dashed=1;fixDash=1;dashPattern=;gliffyId=38;sketch=1;curveFitting=1;jiggle=2;" vertex="1" parent="1">
          <mxGeometry x="420" y="270" width="466.86" height="426.52" as="geometry" />
        </mxCell>
        <mxCell id="SE6ITUf86javaqBnw-S6-26" style="shape=rect;rounded=1;arcSize=15;absoluteArcSize=1;shadow=0;strokeWidth=2;fillColor=none;pointerEvents=0;strokeColor=#1e1e1e;opacity=100.0;dashed=1;fixDash=1;dashPattern=;gliffyId=39;sketch=1;curveFitting=1;jiggle=2;" vertex="1" parent="1">
          <mxGeometry x="1003.14" y="270" width="185.71" height="433.24" as="geometry" />
        </mxCell>
        <mxCell id="SE6ITUf86javaqBnw-S6-27" value="&lt;div style=&#39;width: 118.40636px;height:auto;word-break: break-word;line-height:1em;&#39;&gt;&lt;div align=&quot;center&quot;&gt;&lt;span style=&quot;font-family: Arial; font-size: 28px; line-height: 0;&quot;&gt;&lt;span style=&quot; line-height: 0;&quot;&gt;&lt;span style=&quot;color: #1e1e1e; font-size: 28px; line-height: 16.5px;&quot;&gt;Remote&lt;/span&gt;&lt;br&gt;&lt;/span&gt;&lt;/span&gt;&lt;/div&gt;&lt;/div&gt;" style="text;html=1;nl2Br=0;html=1;nl2Br=0;verticalAlign=top;align=center;spacingLeft=0.0;spacingRight=0;spacingTop=-7.0;spacingBottom=0;whiteSpace=wrap;gliffyId=40;sketch=1;curveFitting=1;jiggle=2;" vertex="1" parent="1">
          <mxGeometry x="1039.5211791992188" y="285.6637878417969" width="118.40635681152344" height="35" as="geometry" />
        </mxCell>
        <mxCell id="SE6ITUf86javaqBnw-S6-28" value="&lt;div style=&#39;width: 100.0px;height:auto;word-break: break-word;line-height:1em;&#39;&gt;&lt;div align=&quot;center&quot;&gt;&lt;span style=&quot;font-family: Arial; font-size: 20px; line-height: 0;&quot;&gt;&lt;span style=&quot; line-height: 0;&quot;&gt;&lt;span style=&quot;color: #1e1e1e; font-size: 20px; line-height: 16.5px;&quot;&gt;folder&lt;/span&gt;&lt;br&gt;&lt;/span&gt;&lt;/span&gt;&lt;/div&gt;&lt;/div&gt;" style="shape=rect;rounded=1;arcSize=15;absoluteArcSize=1;shadow=0;strokeWidth=2;fillColor=none;pointerEvents=0;strokeColor=#1e1e1e;opacity=100.0;dashed=1;fixDash=1;dashPattern=;html=1;nl2Br=0;verticalAlign=middle;align=center;spacingLeft=2.0;spacingRight=0;whiteSpace=wrap;gliffyId=41;sketch=1;curveFitting=1;jiggle=2;" vertex="1" parent="1">
          <mxGeometry x="1049.7142944335938" y="370.27093505859375" width="104" height="46" as="geometry" />
        </mxCell>
        <mxCell id="SE6ITUf86javaqBnw-S6-29" value="&lt;div style=&#39;width: 54.0px;height:auto;word-break: break-word;line-height:1em;&#39;&gt;&lt;div align=&quot;center&quot;&gt;&lt;span style=&quot;font-family: Arial; font-size: 20px; line-height: 0;&quot;&gt;&lt;span style=&quot; line-height: 0;&quot;&gt;&lt;span style=&quot;color: #1e1e1e; font-size: 20px; line-height: 16.5px;&quot;&gt;file&lt;/span&gt;&lt;br&gt;&lt;/span&gt;&lt;/span&gt;&lt;/div&gt;&lt;/div&gt;" style="shape=rect;rounded=1;arcSize=15;absoluteArcSize=1;shadow=0;strokeWidth=2;fillColor=none;pointerEvents=0;strokeColor=#1e1e1e;opacity=100.0;dashed=1;fixDash=1;dashPattern=;html=1;nl2Br=0;verticalAlign=middle;align=center;spacingLeft=2.0;spacingRight=0;whiteSpace=wrap;gliffyId=43;sketch=1;curveFitting=1;jiggle=2;" vertex="1" parent="1">
          <mxGeometry x="1093.7142944335938" y="447.27093505859375" width="58" height="39" as="geometry" />
        </mxCell>
        <mxCell id="SE6ITUf86javaqBnw-S6-30" value="&lt;div style=&#39;width: 54.0px;height:auto;word-break: break-word;line-height:1em;&#39;&gt;&lt;div align=&quot;center&quot;&gt;&lt;span style=&quot;font-family: Arial; font-size: 20px; line-height: 0;&quot;&gt;&lt;span style=&quot; line-height: 0;&quot;&gt;&lt;span style=&quot;color: #1e1e1e; font-size: 20px; line-height: 16.5px;&quot;&gt;file&lt;/span&gt;&lt;br&gt;&lt;/span&gt;&lt;/span&gt;&lt;/div&gt;&lt;/div&gt;" style="shape=rect;rounded=1;arcSize=15;absoluteArcSize=1;shadow=0;strokeWidth=2;fillColor=none;pointerEvents=0;strokeColor=#1e1e1e;opacity=100.0;dashed=1;fixDash=1;dashPattern=;html=1;nl2Br=0;verticalAlign=middle;align=center;spacingLeft=2.0;spacingRight=0;whiteSpace=wrap;gliffyId=45;sketch=1;curveFitting=1;jiggle=2;" vertex="1" parent="1">
          <mxGeometry x="1093.7142944335938" y="513.4375915527344" width="58" height="39" as="geometry" />
        </mxCell>
        <mxCell id="SE6ITUf86javaqBnw-S6-31" value="&lt;div style=&#39;width: 54.0px;height:auto;word-break: break-word;line-height:1em;&#39;&gt;&lt;div align=&quot;center&quot;&gt;&lt;span style=&quot;font-family: Arial; font-size: 20px; line-height: 0;&quot;&gt;&lt;span style=&quot; line-height: 0;&quot;&gt;&lt;span style=&quot;color: #1e1e1e; font-size: 20px; line-height: 16.5px;&quot;&gt;file&lt;/span&gt;&lt;br&gt;&lt;/span&gt;&lt;/span&gt;&lt;/div&gt;&lt;/div&gt;" style="shape=rect;rounded=1;arcSize=15;absoluteArcSize=1;shadow=0;strokeWidth=2;fillColor=none;pointerEvents=0;strokeColor=#1e1e1e;opacity=100.0;dashed=1;fixDash=1;dashPattern=;html=1;nl2Br=0;verticalAlign=middle;align=center;spacingLeft=2.0;spacingRight=0;whiteSpace=wrap;gliffyId=47;sketch=1;curveFitting=1;jiggle=2;" vertex="1" parent="1">
          <mxGeometry x="1093.7142944335938" y="579.6042785644531" width="58" height="39" as="geometry" />
        </mxCell>
        <mxCell id="SE6ITUf86javaqBnw-S6-32" value="&lt;div style=&#39;width: 54.0px;height:auto;word-break: break-word;line-height:1em;&#39;&gt;&lt;div align=&quot;center&quot;&gt;&lt;span style=&quot;font-family: Arial; font-size: 20px; line-height: 0;&quot;&gt;&lt;span style=&quot; line-height: 0;&quot;&gt;&lt;span style=&quot;color: #1e1e1e; font-size: 20px; line-height: 16.5px;&quot;&gt;file&lt;/span&gt;&lt;br&gt;&lt;/span&gt;&lt;/span&gt;&lt;/div&gt;&lt;/div&gt;" style="shape=rect;rounded=1;arcSize=15;absoluteArcSize=1;shadow=0;strokeWidth=2;fillColor=none;pointerEvents=0;strokeColor=#1e1e1e;opacity=100.0;dashed=1;fixDash=1;dashPattern=;html=1;nl2Br=0;verticalAlign=middle;align=center;spacingLeft=2.0;spacingRight=0;whiteSpace=wrap;gliffyId=49;sketch=1;curveFitting=1;jiggle=2;" vertex="1" parent="1">
          <mxGeometry x="1093.7142944335938" y="645.7709350585938" width="58" height="39" as="geometry" />
        </mxCell>
        <mxCell id="SE6ITUf86javaqBnw-S6-33" value="&lt;div style=&#39;width: 50.351936px;height:auto;word-break: break-word;line-height:1em;&#39;&gt;&lt;div align=&quot;center&quot;&gt;&lt;span style=&quot;font-family: Arial; font-size: 20px; line-height: 0;&quot;&gt;&lt;span style=&quot; line-height: 0;&quot;&gt;&lt;span style=&quot;color: #1e1e1e; font-size: 20px; line-height: 16.5px;&quot;&gt;push&lt;/span&gt;&lt;br&gt;&lt;/span&gt;&lt;/span&gt;&lt;/div&gt;&lt;/div&gt;" style="text;html=1;nl2Br=0;html=1;nl2Br=0;verticalAlign=top;align=center;spacingLeft=0.0;spacingRight=0;spacingTop=-7.0;spacingBottom=0;whiteSpace=wrap;gliffyId=51;sketch=1;curveFitting=1;jiggle=2;" vertex="1" parent="1">
          <mxGeometry x="918.2313623046875" y="336.6637878417969" width="50.35193634033203" height="25" as="geometry" />
        </mxCell>
        <mxCell id="SE6ITUf86javaqBnw-S6-34" value="&lt;div style=&#39;width: 62.25593px;height:auto;word-break: break-word;line-height:1em;&#39;&gt;&lt;div align=&quot;center&quot;&gt;&lt;span style=&quot;font-family: Arial; font-size: 20px; line-height: 0;&quot;&gt;&lt;span style=&quot; line-height: 0;&quot;&gt;&lt;span style=&quot;color: #1e1e1e; font-size: 20px; line-height: 16.5px;&quot;&gt;fetch&lt;/span&gt;&lt;br&gt;&lt;/span&gt;&lt;/span&gt;&lt;/div&gt;&lt;/div&gt;" style="text;html=1;nl2Br=0;html=1;nl2Br=0;verticalAlign=top;align=center;spacingLeft=0.0;spacingRight=0;spacingTop=-7.0;spacingBottom=0;whiteSpace=wrap;gliffyId=52;sketch=1;curveFitting=1;jiggle=2;" vertex="1" parent="1">
          <mxGeometry x="912.2793645477295" y="525.5827026367188" width="62.25593185424805" height="25" as="geometry" />
        </mxCell>
        <mxCell id="SE6ITUf86javaqBnw-S6-35" value="&lt;div style=&#39;width: 151.71428px;height:auto;word-break: break-word;line-height:1em;&#39;&gt;&lt;div align=&quot;center&quot;&gt;&lt;span style=&quot;font-family: Arial; font-size: 28px; line-height: 0;&quot;&gt;&lt;span style=&quot; line-height: 0;&quot;&gt;&lt;span style=&quot;color: #1e1e1e; font-size: 28px; line-height: 16.5px;&quot;&gt;objects&lt;/span&gt;&lt;br&gt;&lt;/span&gt;&lt;/span&gt;&lt;/div&gt;&lt;/div&gt;" style="shape=ellipse;perimeter=ellipsePerimeter;shadow=0;strokeWidth=2;fillColor=none;pointerEvents=0;strokeColor=#1e1e1e;opacity=100.0;dashed=1;fixDash=1;dashPattern=;html=1;nl2Br=0;verticalAlign=middle;align=center;spacingLeft=2.0;spacingRight=0;whiteSpace=wrap;gliffyId=53;sketch=1;curveFitting=1;jiggle=2;" vertex="1" parent="1">
          <mxGeometry x="559.952392578125" y="624.806640625" width="155.7142791748047" height="64" as="geometry" />
        </mxCell>
        <mxCell id="SE6ITUf86javaqBnw-S6-36" value="&lt;div style=&#39;width: 135.98389px;height:auto;word-break: break-word;line-height:1em;&#39;&gt;&lt;div align=&quot;center&quot;&gt;&lt;span style=&quot;font-family: Arial; font-size: 20px; line-height: 0;&quot;&gt;&lt;span style=&quot; line-height: 0;&quot;&gt;&lt;span style=&quot;color: #1e1e1e; font-size: 20px; line-height: 16.5px;&quot;&gt;rm --cached&lt;/span&gt;&lt;br&gt;&lt;/span&gt;&lt;/span&gt;&lt;/div&gt;&lt;/div&gt;" style="text;html=1;nl2Br=0;html=1;nl2Br=0;verticalAlign=top;align=center;spacingLeft=0.0;spacingRight=0;spacingTop=-7.0;spacingBottom=0;whiteSpace=wrap;gliffyId=55;sketch=1;curveFitting=1;jiggle=2;" vertex="1" parent="1">
          <mxGeometry x="301.31" y="601.7" width="116.69" height="25" as="geometry" />
        </mxCell>
        <mxCell id="SE6ITUf86javaqBnw-S6-37" value="&lt;div style=&#39;width: 38.08795px;height:auto;word-break: break-word;line-height:1em;&#39;&gt;&lt;div align=&quot;center&quot;&gt;&lt;span style=&quot;font-family: Arial; font-size: 20px; line-height: 0;&quot;&gt;&lt;span style=&quot; line-height: 0;&quot;&gt;&lt;span style=&quot;color: #1e1e1e; font-size: 20px; line-height: 16.5px;&quot;&gt;pull&lt;/span&gt;&lt;br&gt;&lt;/span&gt;&lt;/span&gt;&lt;/div&gt;&lt;/div&gt;" style="text;html=1;nl2Br=0;html=1;nl2Br=0;verticalAlign=top;align=center;spacingLeft=0.0;spacingRight=0;spacingTop=-7.0;spacingBottom=0;whiteSpace=wrap;gliffyId=56;sketch=1;curveFitting=1;jiggle=2;" vertex="1" parent="1">
          <mxGeometry x="634.3899999999999" y="150" width="38.09" height="25" as="geometry" />
        </mxCell>
        <mxCell id="SE6ITUf86javaqBnw-S6-38" style="shape=filledEdge;strokeWidth=2;strokeColor=#1e1e1e;fillColor=none;startArrow=none;startFill=0;startSize=6;endArrow=open;endFill=0;endSize=6;rounded=1;dashed=1;fixDash=1;dashPattern=;gliffyId=57;sketch=1;curveFitting=1;jiggle=2;" edge="1" parent="1">
          <mxGeometry width="110.36708068847656" height="0.03875732421875" relative="1" as="geometry">
            <mxPoint x="302.1540832519531" y="406.8427734375" as="sourcePoint" />
            <mxPoint x="410" y="407" as="targetPoint" />
          </mxGeometry>
        </mxCell>
        <mxCell id="SE6ITUf86javaqBnw-S6-39" style="shape=filledEdge;strokeWidth=2;strokeColor=#1e1e1e;fillColor=none;startArrow=none;startFill=0;startSize=6;endArrow=open;endFill=0;endSize=6;rounded=1;dashed=1;fixDash=1;dashPattern=;gliffyId=58;sketch=1;curveFitting=1;jiggle=2;exitX=0.009;exitY=0.678;exitDx=0;exitDy=0;exitPerimeter=0;" edge="1" parent="1">
          <mxGeometry width="107.06019592285156" height="1.6921560764312744" relative="1" as="geometry">
            <mxPoint x="413.2017400000002" y="559.18056" as="sourcePoint" />
            <mxPoint x="303" y="559" as="targetPoint" />
          </mxGeometry>
        </mxCell>
        <mxCell id="SE6ITUf86javaqBnw-S6-40" style="shape=filledEdge;strokeWidth=2;strokeColor=#1e1e1e;fillColor=none;startArrow=none;startFill=0;startSize=6;endArrow=open;endFill=0;endSize=6;rounded=1;dashed=1;fixDash=1;dashPattern=;gliffyId=59;sketch=1;curveFitting=1;jiggle=2;" edge="1" parent="1">
          <mxGeometry width="118.63420867919922" height="3.7848336696624756" relative="1" as="geometry">
            <mxPoint x="560" y="396" as="sourcePoint" />
            <mxPoint x="679.551513671875" y="396.0566711425781" as="targetPoint" />
          </mxGeometry>
        </mxCell>
        <mxCell id="SE6ITUf86javaqBnw-S6-41" style="shape=filledEdge;strokeWidth=2;strokeColor=#1e1e1e;fillColor=none;startArrow=none;startFill=0;startSize=6;endArrow=open;endFill=0;endSize=6;rounded=1;dashed=1;fixDash=1;dashPattern=;gliffyId=60;sketch=1;curveFitting=1;jiggle=2;entryX=0.996;entryY=0.601;entryDx=0;entryDy=0;exitX=-0.008;exitY=0.622;exitDx=0;exitDy=0;entryPerimeter=0;exitPerimeter=0;" edge="1" parent="1" source="SE6ITUf86javaqBnw-S6-15" target="SE6ITUf86javaqBnw-S6-8">
          <mxGeometry width="114.500732421875" height="0.4779488742351532" relative="1" as="geometry">
            <mxPoint x="685.7520141601562" y="480.8599853515625" as="sourcePoint" />
            <mxPoint x="571.2512817382812" y="480.3820495605469" as="targetPoint" />
          </mxGeometry>
        </mxCell>
        <mxCell id="SE6ITUf86javaqBnw-S6-42" style="shape=filledEdge;strokeWidth=2;strokeColor=#1e1e1e;fillColor=none;startArrow=none;startFill=0;startSize=6;endArrow=open;endFill=0;endSize=6;rounded=1;dashed=1;fixDash=1;dashPattern=;gliffyId=61;sketch=1;curveFitting=1;jiggle=2;entryX=0;entryY=0;entryDx=0;entryDy=0;" edge="1" parent="1" target="SE6ITUf86javaqBnw-S6-35">
          <mxGeometry width="52.49668502807617" height="31.76413345336914" relative="1" as="geometry">
            <mxPoint x="509.66070556640625" y="614.7885437011719" as="sourcePoint" />
            <mxPoint x="562.1573791503906" y="646.5526733398438" as="targetPoint" />
          </mxGeometry>
        </mxCell>
        <mxCell id="SE6ITUf86javaqBnw-S6-43" style="shape=filledEdge;strokeWidth=2;strokeColor=#1e1e1e;fillColor=none;startArrow=none;startFill=0;startSize=6;endArrow=open;endFill=0;endSize=6;rounded=1;dashed=1;fixDash=1;dashPattern=;gliffyId=62;sketch=1;curveFitting=1;jiggle=2;entryX=1;entryY=0;entryDx=0;entryDy=0;exitX=0.5;exitY=1;exitDx=0;exitDy=0;" edge="1" parent="1" source="SE6ITUf86javaqBnw-S6-15" target="SE6ITUf86javaqBnw-S6-35">
          <mxGeometry width="68.204345703125" height="22.67020034790039" relative="1" as="geometry">
            <mxPoint x="774.2109985351562" y="611.4816589355469" as="sourcePoint" />
            <mxPoint x="706.0066528320312" y="634.15185546875" as="targetPoint" />
          </mxGeometry>
        </mxCell>
        <mxCell id="SE6ITUf86javaqBnw-S6-44" style="shape=filledEdge;strokeWidth=2;strokeColor=#1e1e1e;fillColor=none;startArrow=none;startFill=0;startSize=6;endArrow=open;endFill=0;endSize=6;rounded=1;dashed=1;fixDash=1;dashPattern=;gliffyId=63;sketch=1;curveFitting=1;jiggle=2;" edge="1" parent="1">
          <mxGeometry width="89.69901275634766" height="2.1313912868499756" relative="1" as="geometry">
            <mxPoint x="904.0059204101562" y="377.52008056640625" as="sourcePoint" />
            <mxPoint x="993.7049560546875" y="375.38868713378906" as="targetPoint" />
          </mxGeometry>
        </mxCell>
        <mxCell id="SE6ITUf86javaqBnw-S6-45" style="shape=filledEdge;strokeWidth=2;strokeColor=#1e1e1e;fillColor=none;startArrow=none;startFill=0;startSize=6;endArrow=open;endFill=0;endSize=6;rounded=1;dashed=1;fixDash=1;dashPattern=;gliffyId=64;sketch=1;curveFitting=1;jiggle=2;" edge="1" parent="1">
          <mxGeometry width="90.52577209472656" height="0.3487723171710968" relative="1" as="geometry">
            <mxPoint x="985.8511352539062" y="570.145751953125" as="sourcePoint" />
            <mxPoint x="895.3253784179688" y="570.4945373535156" as="targetPoint" />
          </mxGeometry>
        </mxCell>
        <mxCell id="SE6ITUf86javaqBnw-S6-46" style="shape=filledEdge;strokeWidth=2;strokeColor=#1e1e1e;fillColor=none;startArrow=none;startFill=0;startSize=6;endArrow=classic;endFill=1;endSize=6;rounded=1;dashed=1;fixDash=1;dashPattern=;gliffyId=65;sketch=1;curveFitting=1;jiggle=2;exitX=0.5;exitY=0;exitDx=0;exitDy=0;" edge="1" parent="1" source="SE6ITUf86javaqBnw-S6-26">
          <mxGeometry width="859.3750610351562" height="108.79632568359375" relative="1" as="geometry">
            <mxPoint x="1076.86572265625" y="285.5802764892578" as="sourcePoint" />
            <mxPoint x="220" y="270" as="targetPoint" />
            <Array as="points">
              <mxPoint x="650" y="180" />
            </Array>
          </mxGeometry>
        </mxCell>
      </root>
    </mxGraphModel>
  </diagram>
</mxfile>
